<svg width="1507" height="227" viewBox="0 0 1507 227" fill="none" xmlns="http://www.w3.org/2000/svg">
<path d="M849.213 1.92773C941.943 1.92773 1034.67 1.92773 1130.21 1.92773C1130.21 50.4377 1130.21 98.9477 1130.21 148.928C1075.43 148.928 1020.65 148.928 964.213 148.928C964.213 150.248 964.213 151.568 964.213 152.928C1018.99 152.928 1073.77 152.928 1130.21 152.928C1130.21 177.348 1130.21 201.768 1130.21 226.928C1037.48 226.928 944.753 226.928 849.213 226.928C849.213 152.678 849.213 78.4277 849.213 1.92773ZM964.213 74.9277C964.213 76.2477 964.213 77.5677 964.213 78.9277C981.043 78.9277 997.873 78.9277 1015.21 78.9277C1015.21 77.6077 1015.21 76.2877 1015.21 74.9277C998.383 74.9277 981.553 74.9277 964.213 74.9277Z" fill="white"/>
<path d="M132.213 1.92773C224.613 1.92773 317.013 1.92773 412.213 1.92773C412.213 54.0677 412.213 106.208 412.213 159.928C366.013 159.928 319.813 159.928 272.213 159.928C272.213 182.038 272.213 204.148 272.213 226.928C226.013 226.928 179.813 226.928 132.213 226.928C132.213 204.818 132.213 182.708 132.213 159.928C120.993 159.928 109.773 159.928 98.2129 159.928C98.2129 129.568 98.2129 99.2077 98.2129 67.9277C109.433 67.9277 120.653 67.9277 132.213 67.9277C132.213 46.1477 132.213 24.3677 132.213 1.92773ZM270.213 54.9277C270.213 62.8477 270.213 70.7677 270.213 78.9277C262.293 78.9277 254.373 78.9277 246.213 78.9277C246.213 80.2477 246.213 81.5677 246.213 82.9277C254.133 82.9277 262.053 82.9277 270.213 82.9277C270.213 90.8477 270.213 98.7677 270.213 106.928C271.533 106.928 272.853 106.928 274.213 106.928C274.213 99.0077 274.213 91.0877 274.213 82.9277C282.133 82.9277 290.053 82.9277 298.213 82.9277C298.213 81.6077 298.213 80.2877 298.213 78.9277C290.293 78.9277 282.373 78.9277 274.213 78.9277C274.213 71.0077 274.213 63.0877 274.213 54.9277C272.893 54.9277 271.573 54.9277 270.213 54.9277Z" fill="white"/>
<path d="M564.213 1.92773C610.413 1.92773 656.613 1.92773 704.213 1.92773C704.213 26.3477 704.213 50.7677 704.213 75.9277C750.413 75.9277 796.613 75.9277 844.213 75.9277C844.213 125.758 844.213 175.588 844.213 226.928C751.813 226.928 659.413 226.928 564.213 226.928C564.213 152.678 564.213 78.4277 564.213 1.92773Z" fill="white"/>
<path d="M417.213 1.92773C463.743 1.92773 510.273 1.92773 558.213 1.92773C558.213 76.1777 558.213 150.428 558.213 226.928C511.683 226.928 465.153 226.928 417.213 226.928C417.213 152.678 417.213 78.4277 417.213 1.92773Z" fill="white"/>
<path d="M1265.21 19.9291C1271.38 19.826 1277.55 19.7229 1283.9 19.6166C1286.81 19.5483 1286.81 19.5483 1289.77 19.4787C1291.32 19.4641 1292.87 19.4513 1294.41 19.4408C1295.21 19.4153 1296 19.3897 1296.82 19.3633C1301.04 19.36 1302.73 19.5722 1306.22 22.1645C1308.28 25.0218 1308.84 26.2032 1308.84 29.6518C1308.84 30.52 1308.85 31.3881 1308.85 32.2826C1308.82 33.1766 1308.8 34.0706 1308.78 34.9916C1308.79 35.8894 1308.8 36.7873 1308.81 37.7123C1308.74 44.2285 1308.74 44.2285 1306.3 47.4877C1302.61 50.0339 1300.38 50.047 1295.89 50.0268C1294.64 50.0235 1293.38 50.0203 1292.08 50.017C1290.77 50.0086 1289.45 50.0002 1288.09 49.9916C1286.75 49.9866 1285.41 49.982 1284.07 49.9779C1280.78 49.9661 1277.5 49.9482 1274.21 49.9291C1274.21 54.8791 1274.21 59.8291 1274.21 64.9291C1271.24 64.9291 1268.27 64.9291 1265.21 64.9291C1265.21 50.0791 1265.21 35.2291 1265.21 19.9291ZM1274.21 28.9291C1274.21 32.5591 1274.21 36.1891 1274.21 39.9291C1282.46 39.9291 1290.71 39.9291 1299.21 39.9291C1299.21 36.6291 1299.21 33.3291 1299.21 29.9291C1298.17 28.6673 1298.17 28.6673 1295.9 28.8156C1294.4 28.8234 1294.4 28.8234 1292.87 28.8315C1291.79 28.8347 1290.71 28.8379 1289.59 28.8412C1287.89 28.8538 1287.89 28.8538 1286.15 28.8666C1285.01 28.8711 1283.87 28.8756 1282.7 28.8803C1279.87 28.8921 1277.04 28.9101 1274.21 28.9291Z" fill="white"/>
<path d="M22.2129 19.9291C28.3798 19.826 34.5466 19.7229 40.9004 19.6166C43.8079 19.5483 43.8079 19.5483 46.7742 19.4787C48.3201 19.4641 49.8661 19.4513 51.4121 19.4408C52.207 19.4153 53.0019 19.3897 53.8209 19.3633C58.0367 19.36 59.7322 19.5722 63.2236 22.1645C65.2796 25.0218 65.845 26.2032 65.8418 29.6518C65.8437 30.52 65.8457 31.3881 65.8477 32.2826C65.8238 33.1766 65.8 34.0706 65.7754 34.9916C65.7863 35.8894 65.7973 36.7873 65.8086 37.7123C65.7359 44.2285 65.7359 44.2285 63.3027 47.4877C59.6111 50.0339 57.3786 50.047 52.8926 50.0268C51.6357 50.0235 50.3789 50.0203 49.084 50.017C47.7653 50.0086 46.4466 50.0002 45.0879 49.9916C43.748 49.9866 42.4082 49.982 41.0684 49.9779C37.7832 49.9661 34.498 49.9482 31.2129 49.9291C31.2129 54.8791 31.2129 59.8291 31.2129 64.9291C28.2429 64.9291 25.2729 64.9291 22.2129 64.9291C22.2129 50.0791 22.2129 35.2291 22.2129 19.9291ZM31.2129 28.9291C31.2129 32.5591 31.2129 36.1891 31.2129 39.9291C39.4629 39.9291 47.7129 39.9291 56.2129 39.9291C56.2129 36.6291 56.2129 33.3291 56.2129 29.9291C55.175 28.6673 55.175 28.6673 52.8962 28.8156C51.3959 28.8234 51.3959 28.8234 49.8652 28.8315C48.7856 28.8347 47.7061 28.8379 46.5938 28.8412C44.8893 28.8538 44.8893 28.8538 43.1504 28.8666C42.0102 28.8711 40.87 28.8756 39.6953 28.8803C36.8678 28.8921 34.0403 28.9101 31.2129 28.9291Z" fill="#B1B1B1"/>
<path d="M1175.21 16.9277C1178.26 18.2862 1180.34 19.8124 1182.67 22.1855C1183.28 22.8107 1183.9 23.4359 1184.54 24.0801C1185.18 24.7311 1185.81 25.382 1186.46 26.0527C1187.11 26.7114 1187.76 27.3702 1188.43 28.0488C1190.03 29.6707 1191.62 31.2971 1193.21 32.9277C1196.26 31.5693 1198.34 30.0431 1200.67 27.6699C1201.28 27.0447 1201.9 26.4195 1202.54 25.7754C1203.18 25.1244 1203.81 24.4734 1204.46 23.8027C1205.11 23.144 1205.76 22.4853 1206.43 21.8066C1208.03 20.1848 1209.62 18.5584 1211.21 16.9277C1215.42 18.5797 1216.02 19.94 1219.21 23.9277C1213.6 29.5377 1207.99 35.1477 1202.21 40.9277C1206.08 45.4356 1209.87 49.7254 1214.09 53.8652C1214.59 54.3583 1215.08 54.8514 1215.6 55.3594C1216.8 56.5512 1218.01 57.7398 1219.21 58.9277C1217.23 61.2377 1215.25 63.5477 1213.21 65.9277C1209.84 64.2413 1208.28 63.2362 1205.76 60.6699C1205.14 60.0447 1204.52 59.4195 1203.88 58.7754C1203.25 58.1244 1202.62 57.4734 1201.96 56.8027C1201.31 56.144 1200.66 55.4853 1199.99 54.8066C1198.4 53.1848 1196.8 51.5584 1195.21 49.9277C1192.17 51.2862 1190.09 52.8124 1187.76 55.1855C1187.14 55.8107 1186.52 56.4359 1185.88 57.0801C1184.93 58.0565 1184.93 58.0565 1183.96 59.0527C1183.31 59.7114 1182.66 60.3702 1181.99 61.0488C1180.4 62.6707 1178.8 64.2971 1177.21 65.9277C1172.03 63.4181 1172.03 63.4181 1170.21 60.9277C1170.62 57.3792 1172.08 55.7021 1174.59 53.2559C1175.27 52.592 1175.94 51.9281 1176.63 51.2441C1177.34 50.5622 1178.05 49.8803 1178.78 49.1777C1179.49 48.4804 1180.2 47.783 1180.93 47.0645C1182.68 45.3453 1184.45 43.6335 1186.21 41.9277C1181.82 36.647 1177.14 31.9239 1172.09 27.2598C1170.21 24.9277 1170.21 24.9277 1170.3 22.7676C1171.51 20.3207 1173.2 18.747 1175.21 16.9277Z" fill="white"/>
<path d="M1370.21 10.9277C1373.18 10.9277 1376.15 10.9277 1379.21 10.9277C1379.21 19.5077 1379.21 28.0877 1379.21 36.9277C1387.79 36.9277 1396.37 36.9277 1405.21 36.9277C1405.21 39.8977 1405.21 42.8677 1405.21 45.9277C1396.63 45.9277 1388.05 45.9277 1379.21 45.9277C1379.21 54.5077 1379.21 63.0877 1379.21 71.9277C1376.24 71.9277 1373.27 71.9277 1370.21 71.9277C1370.21 63.3477 1370.21 54.7677 1370.21 45.9277C1361.63 45.9277 1353.05 45.9277 1344.21 45.9277C1344.21 42.9577 1344.21 39.9877 1344.21 36.9277C1352.79 36.9277 1361.37 36.9277 1370.21 36.9277C1370.21 28.3477 1370.21 19.7677 1370.21 10.9277Z" fill="#B1B1B1"/>
<path d="M1397.63 6.43512C1407.33 13.4124 1413.14 22.4443 1415.96 33.9898C1417.02 46.4291 1415.03 57.842 1407.21 67.9273C1399.18 76.8908 1390.2 81.6602 1378.21 82.9273C1365.68 83.4115 1354.33 79.4453 1345.1 70.9781C1337.68 62.9131 1333.63 52.9963 1333.78 42.1148C1333.78 41.3258 1333.79 40.5368 1333.8 39.7239C1334.14 28.2301 1338.54 19.4638 1346.21 10.9273C1349.03 8.47972 1351.91 6.66016 1355.21 4.9273C1355.91 4.51609 1356.62 4.10488 1357.34 3.68121C1369.46 -2.40154 1386.4 -0.574621 1397.63 6.43512ZM1343.75 19.7789C1337.67 28.2693 1336.32 37.6939 1337.21 47.9273C1339.74 58.8178 1346.08 67.5574 1355.21 73.9273C1364.74 79.4818 1374.53 80.5817 1385.3 78.2632C1397.01 74.4932 1404.72 66.5825 1410.31 55.814C1413.78 47.257 1413.48 36.7299 1410.65 28.0523C1405.9 16.8677 1398.03 10.1675 1386.96 5.5523C1369.99 -0.0889797 1354.77 6.64444 1343.75 19.7789Z" fill="#B1B1B1"/>
<path d="M1306.37 6.21222C1315.65 12.6279 1323.09 21.6611 1325.21 32.9271C1326.11 46.9224 1324.65 58.8433 1315.21 69.9271C1306.32 78.7135 1296.74 82.3839 1284.34 82.9544C1273.36 82.8583 1262.98 78.7594 1254.84 71.3021C1246.9 62.654 1242.6 51.0747 1242.97 39.3685C1244.12 27.8061 1248.49 18.0561 1257.03 10.0521C1270.95 -1.23617 1290.9 -2.99197 1306.37 6.21222ZM1255.98 16.4427C1247.97 26.8979 1246 35.7524 1247.21 48.9271C1249.36 59.0309 1254.86 66.696 1263.09 72.8021C1272.43 78.8389 1281.09 80.1309 1292.21 78.9271C1303.7 75.9141 1311.95 68.8505 1318.21 58.9271C1322.84 50.2067 1323.61 40.3086 1321.09 30.8021C1317.72 20.9595 1310.91 12.6408 1301.78 7.5755C1286.12 0.416461 1267.65 3.28603 1255.98 16.4427Z" fill="white"/>
<path d="M1216.41 6.24815C1225.63 12.6627 1232.09 21.4131 1234.83 32.3849C1236.55 43.7338 1235.25 55.6516 1228.53 65.2403C1227.46 66.5018 1226.35 67.7306 1225.21 68.9278C1224.56 69.6162 1223.92 70.3046 1223.25 71.0138C1215.2 78.839 1205.69 82.4122 1194.59 83.1778C1182.68 82.9505 1172.54 78.1732 1163.9 70.1778C1155.32 61.1115 1152.7 49.9788 1152.9 37.7833C1153.87 25.6656 1159.42 17.2644 1168.09 9.11534C1181.24 -1.913 1201.97 -2.43704 1216.41 6.24815ZM1164.9 17.1778C1157.74 26.3302 1155.22 36.5902 1156.59 48.0685C1158.81 58.9018 1165.16 67.6445 1174.21 73.9278C1183.72 79.0738 1193.6 80.6167 1204.3 78.2442C1214.84 74.6908 1223.17 67.869 1228.46 58.0528C1232.99 48.1738 1233.29 38.0125 1229.59 27.7403C1225.09 17.7066 1217.83 10.352 1207.77 5.83018C1191.85 0.3364 1176.25 5.09907 1164.9 17.1778Z" fill="white"/>
<path d="M1487.41 6.24806C1496.63 12.6625 1503.05 21.3928 1505.83 32.3496C1507.57 43.965 1506.37 55.3828 1499.53 65.1777C1491.35 74.9876 1482.06 81.1926 1469.21 82.9277C1457.01 83.7691 1446.38 79.7876 1436.99 72.1113C1429.35 65.0377 1424.86 55.7827 1423.88 45.3848C1423.72 30.9961 1427.11 21.2612 1437.13 10.959C1450.44 -1.5572 1471.89 -3.08695 1487.41 6.24806ZM1435.84 17.3652C1428.57 26.5879 1426.51 36.2073 1427.68 47.7832C1429.38 57.7738 1435.52 66.2766 1443.28 72.6113C1452.29 78.7533 1461.53 79.7336 1472.21 78.9277C1482.55 76.6347 1491.25 70.6742 1497.21 61.9277C1502.73 52.6354 1504.65 42.8492 1502.15 32.2402C1498.42 20.688 1491.76 12.6508 1481.03 7.05274C1465.16 -0.689951 1447.33 4.74916 1435.84 17.3652Z" fill="#B1B1B1"/>
<path d="M63.3729 6.21264C72.2758 12.3709 79.1195 20.6393 81.7909 31.2166C83.8532 44.4689 82.0712 55.534 74.5252 66.74C67.9464 75.2767 58.6887 80.6662 48.0409 82.4626C35.1572 83.7782 24.4614 80.9699 13.9198 73.2478C6.21347 66.3017 0.77978 55.539 0.00961058 45.2009C-0.191042 32.7939 2.72373 22.0132 11.2518 12.7009C25.3825 -0.630845 46.4016 -3.88417 63.3729 6.21264ZM13.2127 15.9275C6.1257 24.5128 2.56858 34.1894 3.39242 45.365C5.10043 56.2404 10.1924 65.0712 18.6151 72.0837C27.8474 78.6366 37.0775 79.7677 48.2127 78.9275C59.0682 76.5198 67.8968 70.0166 74.2127 60.9275C79.3032 50.8236 80.6387 41.3596 77.6502 30.4275C74.473 20.8398 67.9359 12.4888 58.912 7.70874C42.7902 0.320687 25.7839 3.26671 13.2127 15.9275Z" fill="#B1B1B1"/>
<path d="M1435.21 36.9277C1455.01 36.9277 1474.81 36.9277 1495.21 36.9277C1495.21 39.8977 1495.21 42.8677 1495.21 45.9277C1475.41 45.9277 1455.61 45.9277 1435.21 45.9277C1435.21 42.9577 1435.21 39.9877 1435.21 36.9277Z" fill="#B1B1B1"/>
</svg>
