<?xml version="1.0" encoding="UTF-8"?>
<svg id="Calque_1" data-name="Calque 1" xmlns="http://www.w3.org/2000/svg" viewBox="0 0 106.89 63.69">
  <defs>
    <style>
      .cls-1 {
        fill: #fff;
      }
    </style>
  </defs>
  <g>
    <polygon points="106.65 10.97 106.65 34.89 103.07 34.89 103.07 34.8 103.07 10.97 106.65 10.97"/>
    <polygon points="103.07 34.89 103.07 38.38 99.5 38.38 99.5 34.8 103.07 34.8 103.07 34.89"/>
    <polygon class="cls-1" points="103.07 10.97 103.07 34.8 99.5 34.8 99.5 38.38 95.92 38.38 95.92 41.95 75.58 41.95 72.01 41.95 72.01 45.52 72.01 56.5 68.18 56.5 68.18 52.67 64.35 52.67 64.35 48.84 60.52 48.84 60.52 45.01 56.69 45.01 56.69 41.95 10.98 41.95 10.98 38.38 7.4 38.38 7.4 34.8 3.83 34.8 3.83 10.97 7.4 10.97 7.4 7.4 10.98 7.4 10.98 3.82 95.92 3.82 95.92 7.4 99.5 7.4 99.5 10.97 103.07 10.97"/>
    <rect x="99.5" y="7.4" width="3.57" height="3.57"/>
    <rect x="95.92" y="38.38" width="3.58" height="3.57"/>
    <rect x="95.92" y="3.82" width="3.58" height="3.58"/>
    <rect x="75.58" y="41.95" width="20.34" height="3.57"/>
    <rect x="10.98" y=".25" width="84.94" height="3.57"/>
    <polygon points="75.58 45.52 75.58 63.44 72.01 63.44 72.01 60.33 72.01 56.5 72.01 45.52 75.58 45.52"/>
    <rect x="72.01" y="41.95" width="3.57" height="3.57"/>
    <rect x="68.18" y="56.5" width="3.83" height="3.83"/>
    <rect x="64.35" y="52.67" width="3.83" height="3.83"/>
    <rect x="60.52" y="48.84" width="3.83" height="3.83"/>
    <polygon points="60.52 45.01 60.52 48.84 56.69 48.84 56.69 45.52 56.69 45.01 60.52 45.01"/>
    <polygon points="56.69 45.01 56.69 45.52 10.98 45.52 10.98 41.95 56.69 41.95 56.69 45.01"/>
    <rect x="7.4" y="38.38" width="3.58" height="3.57"/>
    <rect x="7.4" y="3.82" width="3.58" height="3.58"/>
    <polygon points="7.4 34.8 7.4 38.38 3.83 38.38 3.83 34.89 3.83 34.8 7.4 34.8"/>
    <rect x="3.83" y="7.4" width="3.57" height="3.57"/>
    <polygon points="3.83 34.8 3.83 34.89 .25 34.89 .25 10.97 3.83 10.97 3.83 34.8"/>
  </g>
  <g>
    <path d="M18.86,34.89h-1.88V12.39h3.75v1.88h3.75v3.75h3.75v3.75h-3.75v-3.75h-3.75v16.87h-1.88ZM33.86,34.89h-1.88v-9.37h-3.75v-3.75h3.75v-9.38h3.75v22.5h-1.88Z"/>
    <path d="M54.48,34.89h-16.88V12.39h18.75v3.75h-15v3.75h5.62v3.75h-5.62v7.5h15v3.75h-1.88Z"/>
    <path d="M60.11,34.89h-1.88V12.39h3.75v15h3.75v3.75h-3.75v3.75h-1.88ZM69.48,27.39h-3.75v-3.75h3.75v3.75ZM75.11,34.89h-1.88v-3.75h-3.75v-3.75h3.75v-15h3.75v22.5h-1.88Z"/>
    <path d="M90.11,29.26h-1.88V12.39h3.75v16.88h-1.88ZM90.11,34.89h-1.88v-3.75h3.75v3.75h-1.88Z"/>
  </g>
</svg>