<svg width="1699" height="547" viewBox="0 0 1699 547" fill="none" xmlns="http://www.w3.org/2000/svg">
<path d="M136 135.093C173.78 134.912 211.561 134.731 250.486 134.544C262.387 134.464 274.288 134.384 286.549 134.302C301.154 134.262 301.154 134.262 308.005 134.255C312.759 134.241 317.513 134.21 322.268 134.166C329.497 134.101 336.723 134.092 343.952 134.096C346.048 134.064 348.143 134.033 350.302 134C368.752 134.113 381.787 138.756 396.111 150.463C409.476 166.779 412.856 181.874 412.769 202.6C412.784 204.79 412.8 206.979 412.816 209.236C412.834 213.839 412.831 218.442 412.806 223.045C412.781 230.03 412.865 237.008 412.958 243.992C413.179 291.056 413.179 291.056 395.429 309.382C382.512 320.857 372.78 322.828 355.988 322.793C352.409 322.793 348.83 322.793 345.143 322.792C341.278 322.777 337.413 322.762 333.431 322.747C329.435 322.741 325.439 322.737 321.443 322.734C310.935 322.723 300.426 322.694 289.918 322.662C279.191 322.632 268.465 322.618 257.738 322.604C236.698 322.574 215.657 322.517 194.617 322.461C194.617 355.309 194.617 388.157 194.617 422C175.273 422 155.93 422 136 422C136 327.321 136 232.641 136 135.093ZM194.617 190.718C194.617 215.837 194.617 240.956 194.617 266.836C247.811 266.836 301.006 266.836 355.812 266.836C355.812 241.717 355.812 216.598 355.812 190.718C302.618 190.718 249.423 190.718 194.617 190.718Z" fill="#B1B1B1"/>
<path d="M1317 135.093C1354.78 134.912 1392.56 134.731 1431.49 134.544C1443.39 134.464 1455.29 134.384 1467.55 134.302C1482.15 134.262 1482.15 134.262 1489 134.255C1493.76 134.241 1498.51 134.21 1503.27 134.166C1510.5 134.101 1517.72 134.092 1524.95 134.096C1527.05 134.064 1529.14 134.033 1531.3 134C1549.75 134.113 1562.79 138.756 1577.11 150.463C1590.48 166.779 1593.86 181.874 1593.77 202.6C1593.78 204.79 1593.8 206.979 1593.82 209.236C1593.83 213.839 1593.83 218.442 1593.81 223.045C1593.78 230.03 1593.87 237.008 1593.96 243.992C1594.18 291.056 1594.18 291.056 1576.43 309.382C1563.51 320.857 1553.78 322.828 1536.99 322.793C1533.41 322.793 1529.83 322.793 1526.14 322.792C1522.28 322.777 1518.41 322.762 1514.43 322.747C1510.43 322.741 1506.44 322.737 1502.44 322.734C1491.93 322.723 1481.43 322.694 1470.92 322.662C1460.19 322.632 1449.46 322.618 1438.74 322.604C1417.7 322.574 1396.66 322.517 1375.62 322.461C1375.62 355.309 1375.62 388.157 1375.62 422C1356.27 422 1336.93 422 1317 422C1317 327.321 1317 232.641 1317 135.093ZM1375.62 190.718C1375.62 215.837 1375.62 240.956 1375.62 266.836C1428.81 266.836 1482.01 266.836 1536.81 266.836C1536.81 241.717 1536.81 216.598 1536.81 190.718C1483.62 190.718 1430.42 190.718 1375.62 190.718Z" fill="#B1B1B1"/>
<path d="M961.77 118.333C974.736 131.349 987.702 144.366 1001.06 157.777C962.011 196.675 922.961 235.572 882.728 275.649C920.943 314.014 959.158 352.378 998.532 391.906C985.515 404.872 972.498 417.837 959.087 431.196C920.872 392.831 882.657 354.467 843.284 314.939C804.919 353.155 766.554 391.37 727.027 430.743C714.061 417.727 701.095 404.71 687.736 391.299C726.101 353.084 764.466 314.868 803.993 275.495C765.095 236.445 726.198 197.395 686.121 157.162C699.138 144.196 712.155 131.23 725.566 117.872C764.463 156.922 803.361 195.971 843.437 236.205C882.487 197.307 921.537 158.409 961.77 118.333Z" fill="#B1B1B1"/>
<path d="M1008.08 74.0179C1062.44 121.556 1092.88 183.124 1099.48 254.967C1103.65 322.884 1082.56 390.495 1037.95 442.073C993.629 490.981 931.708 526.997 864.481 530.78C786.051 533.461 720.335 511.731 661.226 459.382C615.156 416.021 585.332 352.727 583.054 289.319C581.773 213.612 603.083 147.518 655.834 91.7603C751.439 -1.15074 903.884 -12.9025 1008.08 74.0179ZM674.507 87.9371C672.282 89.8862 670.056 91.8353 667.763 93.8436C622.094 136.43 595.649 198.379 591.744 260.153C589.817 330.372 613.22 394.063 661.487 445.668C709.425 494.853 772.038 521.834 841.017 522.911C910.8 522.499 970.909 494.035 1020.35 445.44C1022.4 443.431 1024.45 441.421 1026.56 439.35C1070.14 393.569 1092.09 328.661 1091.13 266.048C1087.4 196.148 1058.34 135.134 1007.71 87.0213C911.328 3.4142 770.386 2.51206 674.507 87.9371Z" fill="#B1B1B1"/>
<path d="M426.325 76.396C428.089 77.7714 429.853 79.1468 431.67 80.5639C470.724 111.823 494.051 158.411 508.359 205.374C509.047 207.547 509.734 209.719 510.442 211.958C528.333 278.501 513.039 350.413 479.531 409.089C444.234 467.958 387.018 506.214 322.078 524.99C253.7 540.926 184.24 529.237 123.425 494.543C84.1285 469.742 52.7853 436.75 30.8055 395.909C29.1778 392.928 27.55 389.947 25.873 386.875C-4.85509 325.923 -7.22065 253.957 13.5244 189.481C26.4056 154.06 43.919 125.09 68.8926 96.9152C70.6601 94.8671 72.4276 92.8191 74.2486 90.709C165.265 -7.87799 326.931 -7.55532 426.325 76.396ZM92.3308 88.1212C89.8911 90.2864 87.4514 92.4516 84.9377 94.6823C39.2167 137.683 12.542 197.442 9.47308 260.118C7.37815 332.873 33.1379 397.155 82.4314 450.355C125.677 495.109 189.025 520.919 250.715 522.786C322.856 523.752 386.757 495.578 438.594 446.108C486.006 396.865 508.83 331.613 508.359 264C505.044 197.026 476.344 135.581 428.045 89.3808C380.337 46.3767 317.121 22.2167 252.931 23.1972C192.631 26.3769 137.433 47.7725 92.3308 88.1212Z" fill="#B1B1B1"/>
<path d="M1607.33 76.2772C1609.09 77.65 1610.85 79.0228 1612.67 80.4371C1651.72 111.636 1675.05 158.134 1689.36 205.006C1690.05 207.174 1690.73 209.343 1691.44 211.577C1709.33 277.991 1694.04 349.764 1660.53 408.326C1625.23 467.082 1568.02 505.264 1503.08 524.004C1434.7 539.909 1365.24 528.242 1304.43 493.616C1265.13 468.863 1233.79 435.934 1211.81 395.172C1210.18 392.197 1208.55 389.221 1206.87 386.156C1176.14 325.322 1173.78 253.494 1194.52 189.143C1207.41 153.791 1224.92 124.877 1249.89 96.7567C1251.66 94.7127 1253.43 92.6686 1255.25 90.5626C1346.27 -7.83374 1507.93 -7.5117 1607.33 76.2772ZM1273.33 87.9798C1270.89 90.1408 1268.45 92.3018 1265.94 94.5282C1220.22 137.445 1193.54 197.089 1190.47 259.644C1188.38 332.258 1214.14 396.416 1263.43 449.513C1306.68 494.181 1370.02 519.94 1431.71 521.804C1503.86 522.767 1567.76 494.649 1619.59 445.274C1667.01 396.126 1689.83 331.001 1689.36 263.518C1686.04 196.674 1657.34 135.348 1609.04 89.2369C1561.34 46.316 1498.12 22.2027 1433.93 23.1813C1373.63 26.3549 1318.43 47.7091 1273.33 87.9798Z" fill="#B1B1B1"/>
</svg>
